<svg xmlns="http://www.w3.org/2000/svg" viewBox="0 0 112.18 126.08"><defs><style>.cls-1{fill:#fcc900;}.cls-2{fill:#2b2422;}.cls-3{fill:#e5005c;}.cls-4{fill:#009ee2;}.cls-5{fill:#7e0630;}.cls-6{fill:#fff;}.cls-7{fill:#4aae57;}.cls-8{fill:#e74c0f;}</style></defs><g id="Capa_2" data-name="Capa 2"><g id="Capa_1-2" data-name="Capa 1"><path class="cls-1" d="M107.3,48.81l-.4-.31a13.66,13.66,0,0,0,2.45-8.43,10.11,10.11,0,0,0-2.87-6.25c-2-2.61-6.3-3.4-22.38-5.39-2.45-.84-3.64-1.22-4.43-1.41l-.26-.1-.29-.11a110,110,0,0,0-20-5.83l-.32-.48-2.37-5.74a29.48,29.48,0,0,0-3.24-6.09c-2.78-4-6.1-6.65-9.88-7.86l-.09,0A23.87,23.87,0,0,0,34.83.11a18.1,18.1,0,0,0-9.86,4l-.16.14-.18.16-.15.15c-.51.53-5,5.28-6.56,11.3a30.06,30.06,0,0,0-1.51,9A41,41,0,0,1,16,29.8a7.9,7.9,0,0,1-1.31,2.44C13.1,33.81,2.17,45.05.68,58.73a36.43,36.43,0,0,0,4.37,25.7c1.1,2,4.45,6.82,6.58,9.81l.19.52.53,5.32a.15.15,0,0,1,0,.07v.08s0,0,0,.07a10,10,0,0,0,3.19,6.24c.78.64,3.71,2.66,8.77,2.15A19.47,19.47,0,0,0,28,108a9.39,9.39,0,0,0,3.56-2c.93.4,1.72.71,2.38,1a3.28,3.28,0,0,1,.3.33c.07.12.14.24.22.36l6.19,9,0,0c3,4.23,5.49,7.56,8.67,8.63l.15,0a15.87,15.87,0,0,0,6.14.58A14.06,14.06,0,0,0,60,124.82l3.74-1.62.08,0a10.61,10.61,0,0,0,5.69-8.09.5.5,0,0,1,0-.12v-.13s0-.08,0-.12c.18-1.85.37-3.69.55-5.31l.22.08a12.56,12.56,0,0,0,5.93.89,11.37,11.37,0,0,0,6.29-2.73,3.44,3.44,0,0,0,.36-.28l.52-.46a12,12,0,0,0,3-4.31,1.67,1.67,0,0,1,.08-.2,13.28,13.28,0,0,0,.87-6.28l-.25-2.77a57.11,57.11,0,0,0,9.95-9.72c1-1,4.5-4.4,6.4-6.63A26.82,26.82,0,0,0,112,60.4,12.46,12.46,0,0,0,107.3,48.81Z"/><path class="cls-2" d="M105.91,52.52a9.36,9.36,0,0,0-4.66-2.18l2.35-1.94.26-.24c.3-.36,3-3.56,2.72-7.17a6.34,6.34,0,0,0-2-4.11c-.69-1.15-3.24-2-20.42-4.15h0c-3-1-4.11-1.39-4.7-1.51l-.84-.32a105.73,105.73,0,0,0-19.94-5.79c-.45-.17-1-.39-1.24-.51a10,10,0,0,1-1.44-2l-2.52-6.12c-.31-.84-3.66-9.51-10.76-11.8a20.19,20.19,0,0,0-6.92-.55,14.43,14.43,0,0,0-7.86,3.12l-.17.16c-.19.18-4.42,4.55-5.7,9.8a26,26,0,0,0-1.37,8.07,39.19,39.19,0,0,1-.57,6l0,.1a12,12,0,0,1-2.23,3.93C17,36.14,6.08,47,4.74,59.85A32.92,32.92,0,0,0,8.61,83.23c1,1.94,5.43,8.23,6.72,10l.54,1.49.58,5.84v.08a6.45,6.45,0,0,0,1.81,3.8c.35.29,2.27,1.69,6,1.32h0a15.79,15.79,0,0,0,2.93-.61,5.34,5.34,0,0,0,3.47-3,60.88,60.88,0,0,0,5.67,2.36,7.57,7.57,0,0,1,1.7,1.93l6.23,9.14c2,2.84,4.6,6.6,6.87,7.28h0a12.11,12.11,0,0,0,4.61.42,9.91,9.91,0,0,0,3.26-.86l3.83-1.65a6.8,6.8,0,0,0,3.51-5.22l0-.13c.46-4.53,1-9.6,1.28-11l.11-.14.07-.67c0-.06,0-.13,0-.22,1.28,1.31,3.35,3.23,4.9,3.64a7.57,7.57,0,0,0,2.69.25,4.85,4.85,0,0,0,1.71-.47c1.39-.51,3-1.07,3.49-1.23l.53,0,.53-.46a9.16,9.16,0,0,0,2.67-7.56l-.45-5.1c1.15-.69,5.64-3.63,11.27-10.5.69-.67,4.7-4.55,6.55-6.76a22.91,22.91,0,0,0,7.55-14.52A8.51,8.51,0,0,0,105.91,52.52Z"/><path class="cls-3" d="M19.42,36.87S8.17,47.71,6.91,60.18a30.51,30.51,0,0,0,3.62,22c.83,1.76,6.77,10.1,6.77,10.1l.73,2,.6,6.11a4.61,4.61,0,0,0,1,2.4s2.14,1.75,6.91.29a3.13,3.13,0,0,0,2.1-1.91l.51-1.5s.58-.42.83-.21a76.42,76.42,0,0,0,7.32,3.08,10.63,10.63,0,0,1,2.65,3L46,114.34s4.58,6.57,5.75,6.45a9.56,9.56,0,0,0,6.32-.36l3.78-1.63a4.68,4.68,0,0,0,2.26-3.57s1.16-11.48,1.45-11.84a8.15,8.15,0,0,1,1.45-3.88s.55-1.11,1.67,1.61c0,0,3.09,3.37,4.6,3.77a4.56,4.56,0,0,0,2.91-.12s3.73-1.36,4-1.38a6.93,6.93,0,0,0,1.93-5.71l-.51-5.79a1.45,1.45,0,0,1,.92-1.28s4.73-2.57,11-10.22c0,0,4.76-4.57,6.6-6.83a20.69,20.69,0,0,0,7-13.29s.82-3.27-2.57-6.05c0,0-2.21-1.82-3.64-1.67a22.5,22.5,0,0,1-4.19-1.29l5.51-4.56s4.57-5.21.54-8.52c0,0,.83-.8-18.83-3.26l-.25,0S79.25,33.36,79,33.38s-10.54-4.47-20.87-6.13a15.74,15.74,0,0,1-2-.85A10.18,10.18,0,0,1,54,23.58l-2.59-6.3S48.4,8.83,42.1,6.8c0,0-7.47-2.2-12.76,2.15,0,0-4.06,4.15-5.16,8.94a22.29,22.29,0,0,0-1.28,7.46A40.71,40.71,0,0,1,22.22,32c0,.08,0,.15-.07.21A14.15,14.15,0,0,1,19.42,36.87Z"/><path class="cls-2" d="M55.57,121.8a11.1,11.1,0,0,1-3.92-.34c-1.1-.18-3.17-2.44-6.17-6.74l-6.11-8.94A9.41,9.41,0,0,0,37,103.16a77.8,77.8,0,0,1-7.24-3.07l0,0-.43,1.26a3.86,3.86,0,0,1-2.6,2.36,13.37,13.37,0,0,1-2.63.54h0c-3.24.32-4.8-.92-4.86-1A5,5,0,0,1,18,100.47l-.6-6-.67-1.86c-.63-.89-5.88-8.29-6.75-10.08a31.28,31.28,0,0,1-3.7-22.4C7.52,47.52,18.48,36.83,19,36.38a13,13,0,0,0,2.56-4.45c0-.06,0-.12.07-.19a41.67,41.67,0,0,0,.64-6.41,23.52,23.52,0,0,1,1.31-7.65c1.14-4.9,5.15-9,5.32-9.2l.06-.05a12.8,12.8,0,0,1,7-2.78,18.5,18.5,0,0,1,6.34.49c6.56,2.12,9.65,10.55,9.78,10.91l2.56,6.23a10.71,10.71,0,0,0,1.92,2.58,16.43,16.43,0,0,0,1.75.73,103.61,103.61,0,0,1,19.78,5.74l1,.38a44.39,44.39,0,0,1,4.7,1.51l.18,0c17.14,2.15,19,3,19.33,3.54a4.87,4.87,0,0,1,1.74,3.34c.25,3-2.24,5.91-2.35,6l-.08.08L98,51.07c.78.25,1.92.55,3,.79,1.65-.07,3.78,1.63,4,1.83,3.47,2.85,2.92,6.18,2.81,6.68a21.23,21.23,0,0,1-7.13,13.68c-1.82,2.2-6.15,6.38-6.59,6.8-6.25,7.65-11,10.25-11.15,10.36a.84.84,0,0,0-.57.66l.5,5.75a7.54,7.54,0,0,1-2.15,6.28l-.16.14-.22,0c-.21,0-2.09.72-3.78,1.33a3.16,3.16,0,0,1-1.25.35,6.37,6.37,0,0,1-2.12-.19c-1.65-.45-4.59-3.61-4.92-4l-.08-.09,0-.11a5.64,5.64,0,0,0-.65-1.26,7.69,7.69,0,0,0-1.16,3.33l0,.21-.06.08c-.24,1-1,7.52-1.37,11.56a5.36,5.36,0,0,1-2.66,4.12l-3.79,1.63A8.83,8.83,0,0,1,55.57,121.8Zm-3.78-1.69h.08l.13,0a9.24,9.24,0,0,0,3.43.3,7.45,7.45,0,0,0,2.4-.63l3.79-1.63a4.05,4.05,0,0,0,1.86-3.06c.89-8.78,1.26-11.12,1.45-11.83a8.78,8.78,0,0,1,1.56-4.17,1.11,1.11,0,0,1,.8-.51c.93-.09,1.56,1.07,2,2.13,1.16,1.26,3.26,3.24,4.2,3.5a5.26,5.26,0,0,0,1.63.15,1.79,1.79,0,0,0,.76-.22l.11,0c2.53-.92,3.49-1.24,3.88-1.35a6.28,6.28,0,0,0,1.59-5L81,92a2.14,2.14,0,0,1,1.33-2S86.94,87.4,93,80l0-.06c.05-.05,4.75-4.57,6.55-6.77l.1-.1a20.19,20.19,0,0,0,6.69-12.82l0-.11c0-.11.65-2.9-2.34-5.35-.77-.64-2.31-1.61-3.14-1.53h-.11l-.11,0c-1.14-.26-3.85-.91-4.47-1.43l-.64-.52,6.1-5c.28-.33,2.18-2.71,2-5a3.55,3.55,0,0,0-1.4-2.52l-.17-.14c-.66-.27-3.8-1.16-18.31-3l-.39-.06c-1.91-.66-4.06-1.37-4.47-1.46a6.41,6.41,0,0,1-1.38-.47A102.12,102.12,0,0,0,58,27.92l-.12,0a10.89,10.89,0,0,1-2.18-1,10.33,10.33,0,0,1-2.27-3l0-.09-2.59-6.3c-.05-.11-3-8.19-8.92-10.09A16.92,16.92,0,0,0,36.09,7,11.57,11.57,0,0,0,29.8,9.45c-.33.35-4,4.24-5,8.59l0,.12a22.08,22.08,0,0,0-1.22,7.22,40.72,40.72,0,0,1-.71,6.77,1.91,1.91,0,0,1-.09.26,14.46,14.46,0,0,1-2.87,4.94c-.13.12-11.11,10.83-12.32,22.9v.07A29.92,29.92,0,0,0,11.1,81.78l.05.07c.63,1.35,4.66,7.13,6.7,10l.09.16.77,2.19.6,6.12a3.73,3.73,0,0,0,.78,1.93,5.7,5.7,0,0,0,3.86.68h0a12.79,12.79,0,0,0,2.42-.51,2.45,2.45,0,0,0,1.67-1.5l.57-1.68.18-.13a2.11,2.11,0,0,1,.93-.39,1,1,0,0,1,.63.13,68,68,0,0,0,7.1,3l.16,0,.13.1a11.06,11.06,0,0,1,2.83,3.15l6,8.81C48.53,116.72,51.05,119.82,51.79,120.11Z"/><path class="cls-4" d="M22.13,94.86c-1.69-8.48-6.58-8.37-6.58-8.37s-.91,3,3.13,6.4S22.13,94.86,22.13,94.86Z"/><path class="cls-2" d="M22.09,95.78h0c-.41,0-1.08-.11-3.82-2.41C14,89.75,14.9,86.44,14.94,86.3a.63.63,0,0,1,.59-.44c.22,0,5.43,0,7.21,8.83a.92.92,0,0,1-.06.73A.76.76,0,0,1,22.09,95.78Zm-6-8.6c0,.92.28,2.94,3,5.23a24.56,24.56,0,0,0,2.25,1.73C20,88.61,17.24,87.43,16.08,87.18Z"/><path class="cls-4" d="M21.71,38.89s-6.34.46-8.72,8c0,0-.24,2.61,5.1-1.64C18.09,45.22,22.2,39.68,21.71,38.89Z"/><path class="cls-2" d="M14,48.27h0a1.34,1.34,0,0,1-1.59-1.47l0-.13c2.38-7.51,8.53-8.33,9.22-8.4a.72.72,0,0,1,.64.29c.19.32.71,1.15-3.66,7a.63.63,0,0,1-.11.12C16.44,47.33,15,48.17,14,48.27ZM13.64,47a.54.54,0,0,0,.19,0h0c.42,0,1.46-.39,3.8-2.25a37.67,37.67,0,0,0,3.29-5.1c-1.74.41-5.56,1.91-7.3,7.28a.08.08,0,0,0,0,.06Z"/><path class="cls-4" d="M53.91,74.94a7.36,7.36,0,1,1-8.06-6.77A7.44,7.44,0,0,1,53.91,74.94Z"/><path class="cls-2" d="M47.4,83.79a8.16,8.16,0,1,1,7.14-8.91A8.09,8.09,0,0,1,47.4,83.79Zm-1.49-15A6.9,6.9,0,1,0,53.28,75,6.83,6.83,0,0,0,45.91,68.8Z"/><path class="cls-2" d="M25.59,73.18s11,3.13,10.75.37c0,0-.18-.54-1.79.18,0,0-5.62.65-9-.58"/><path class="cls-2" d="M27.14,74.48s11.3.77,9.5,2.79a3,3,0,0,1-2.16-.9S32.92,75.24,27.14,74.48Z"/><path class="cls-2" d="M27.4,72.74s11.69,1.69,10.17-2c0,0-.24-.44-.52-.42s.48,1-3.23,2A15.84,15.84,0,0,1,27.4,72.74Z"/><path class="cls-2" d="M8.4,54.82h0a.42.42,0,0,1-.4-.26l.42-.18-.21.09.2-.09s.41-.12,1.32-2.68a14.44,14.44,0,0,0,.44-1.41c-.11.14-.24.33-.36.52l-.39-.25c.72-1.15,1-1,1.08-1s.34.33-.35,2.26C9.23,54.38,8.73,54.79,8.4,54.82Z"/><path class="cls-2" d="M97,52.35a.71.71,0,0,1-.4-.09c-.33-.18-8-4.51-7.2-10.11a.67.67,0,0,1,.77-.58.68.68,0,0,1,.57.77C90.05,47,97.17,51,97.24,51.07a.68.68,0,0,1,.26.93A.7.7,0,0,1,97,52.35Z"/><path class="cls-5" d="M104.29,42.11S96,39.78,90.53,43.23c0,0,.09,5.31,6.12,7.73l5.57-4.56s2-2.66,2-4.14"/><path class="cls-5" d="M26.48,33l-1.24-2.41S24.27,15,29.7,12.8s7.62,9.44,7,13.31C36.72,26.11,34,29.65,26.48,33Z"/><path class="cls-1" d="M35.15,15.73S31,21.21,34.88,28.46l1.43-1.72Z"/><path class="cls-2" d="M34.91,28.8h-.07a.36.36,0,0,1-.27-.18,12.46,12.46,0,0,1,.31-13.1.33.33,0,0,1,.37-.13.34.34,0,0,1,.25.3l1.16,11a.35.35,0,0,1-.08.26l-1.44,1.71A.33.33,0,0,1,34.91,28.8Zm0-12a11.86,11.86,0,0,0,0,11l1-1.2Z"/><path class="cls-2" d="M24.29,34.43c-.33,0-.46-.1-.59-.43a.71.71,0,0,1,.45-.91.58.58,0,0,1,.19,0l1.07-.38c3.21-1.15,7.65-3.27,10.64-6.82,0-1.34.09-8.36-2.59-11.3a3.53,3.53,0,0,0-2.56-1.24c-1.19-.05-2.19.61-3,2C25.11,19.85,25.37,29.6,26,30.7a.68.68,0,1,1-1.18.68c-1-1.81-1-12,1.87-16.76,1.4-2.3,3.09-2.72,4.27-2.67a4.91,4.91,0,0,1,3.51,1.69c3.33,3.66,2.94,12.14,2.93,12.5v.22l-.15.18c-3.18,3.9-7.94,6.18-11.38,7.41A7.82,7.82,0,0,1,24.29,34.43Z"/><path class="cls-2" d="M27.48,11.29s4.79-7,11.41,4.58c0,0,4.78,9.9,5.86,10.14,0,0,1.2.43,1-1,0,0-4.6-20.29-14.4-17.31A12.08,12.08,0,0,0,27.48,11.29Z"/><path class="cls-6" d="M32.18,7.51s5.36-1.86,9.34,5.58S45.88,25.26,47,25.65c0,0,.95.69.84-.43,0,0-6.13-14.76-7.59-15.6C40.2,9.62,36,5.49,32.18,7.51Z"/><path class="cls-6" d="M43.76,7.89s-2.59-2.55-5.11-.08C38.65,7.81,42.91,7.48,43.76,7.89Z"/><path class="cls-6" d="M44,8.26s3.83,2.89.59,5.92a2,2,0,0,0-2.21-.95S44.94,11,44,8.26Z"/><path class="cls-6" d="M47.05,12.73l-.16,1.45s.86.7.79-.08A2.65,2.65,0,0,0,47.05,12.73Z"/><path class="cls-6" d="M51.52,18.15s-2.24-3.61-5.15-2.34l-1.51.69a29.37,29.37,0,0,0,7.06,3.24S52.46,20.18,51.52,18.15Z"/><path class="cls-6" d="M53.41,22.84S50,18.4,48.05,19.43L46.19,20s4.42,3,7.32,3.41Z"/><path class="cls-6" d="M45.62,9.37a7.62,7.62,0,0,0,3.92,4.56S46.64,9.48,45.62,9.37Z"/><path class="cls-6" d="M39.45,6.73l-.14.08a3.7,3.7,0,0,1-3.36,0,5.36,5.36,0,0,1,3.61-.23"/><path class="cls-2" d="M40,105.81a16.6,16.6,0,0,0,12-.63S40.91,105.1,40,105.81Z"/><path class="cls-2" d="M38.73,103.23a27.15,27.15,0,0,1,12.19-.77S39.77,103.58,38.73,103.23Z"/><path class="cls-2" d="M96.86,51.27s-15.18,12.69-.1,26c0,0,12.16-11.15,10.23-19.66,0,0-1.83-4.45-5.7-5.14C101.29,52.44,96.88,51.55,96.86,51.27Z"/><path class="cls-2" d="M104.33,42.6s-2.47-3.11-8.4-3.38a27.17,27.17,0,0,1-13-4.54,41.25,41.25,0,0,0,5.1.9s13.26,1.81,13.8,2.3C101.8,37.88,103.89,38.1,104.33,42.6Z"/><path class="cls-5" d="M47.83,50.27c2,1.68,8.1,6.95,14.33,3,0,0,11.75-5.11,14.65-9.53a3.93,3.93,0,0,1,2,3.74S77,53.22,67.55,56.79c0,0-7,3.06-12.87.42,0,0-4.75-2.28-5.37-3.27C49.31,53.94,46.63,50.66,47.83,50.27Z"/><path class="cls-2" d="M47.65,48.4c2,1.67,8.09,6.94,14.32,3,0,0,11.75-5.11,14.65-9.53a3.91,3.91,0,0,1,1.95,3.74s-1.79,5.76-11.2,9.33c0,0-7,3.06-12.88.42,0,0-4.74-2.28-5.37-3.27C49.12,52.06,46.44,48.78,47.65,48.4Z"/><path class="cls-2" d="M67.83,99.9l-.65-1.19c.12-.07,12.08-6.66,14.62-8.43l.77,1.12C80,93.21,68.33,99.63,67.83,99.9Z"/><path class="cls-6" d="M36.16,101.38a24.47,24.47,0,0,1,14.31-2S37.44,101.84,36.16,101.38Z"/><path class="cls-6" d="M39.39,104A15.19,15.19,0,0,1,50.62,103S40.37,104.55,39.39,104Z"/><path class="cls-6" d="M41.94,107.55s-.07-1.67,9.54-1.44C51.48,106.11,45.26,108.35,41.94,107.55Z"/><path class="cls-6" d="M43.56,110.1s1.85-1.27,7.16-.72C50.72,109.38,49.15,110.43,43.56,110.1Z"/><path class="cls-6" d="M45.47,112.91a17.43,17.43,0,0,1,8.28.21S48.85,114.84,45.47,112.91Z"/><path class="cls-6" d="M48.2,116.63a12,12,0,0,1,6.1,0S52.56,118,48.2,116.63Z"/><path class="cls-6" d="M51.1,119.59l4.77-.47A4.18,4.18,0,0,1,51.1,119.59Z"/><path class="cls-2" d="M51.7,107.71a14,14,0,0,1-9.72.79S50.86,107.26,51.7,107.71Z"/><path class="cls-5" d="M30,99.43c-8.06-2-11.49-5.82-11.49-5.82l.69,1.85s0,6.31,1.52,6.78a9.18,9.18,0,0,0,7.85-.62s.56-.2.95-1.74Z"/><path class="cls-2" d="M24.9,103.47h0a10.06,10.06,0,0,1-4.26-.56l-.1,0c-.59-.18-2-1.26-2-7.3l-.65-1.74a.68.68,0,0,1,.29-.81.66.66,0,0,1,.84.13s3.42,3.74,11.15,5.61a.68.68,0,0,1,.3,1.15l-.34.32c-.4,1.44-1,1.86-1.27,2A11,11,0,0,1,24.9,103.47Zm-5-7.8c0,2.9.52,5.69,1.05,5.93l.1,0a8.86,8.86,0,0,0,3.73.5h0A9.59,9.59,0,0,0,28.28,101h0a2.38,2.38,0,0,0,.56-1.19A27.12,27.12,0,0,1,19.89,95.67Z"/><path class="cls-2" d="M44.43,110.8s6.86-.19,8.5.48C52.93,111.28,46,113.9,44.43,110.8Z"/><path class="cls-2" d="M46.91,114.54l7.31.41s-5.49,2.63-7.55-.61"/><path class="cls-2" d="M49.28,117.65l7.57,0S51.89,121,49.28,117.65Z"/><path class="cls-4" d="M54.93,27.32s-7.4,6-1.73,9c0,0,5.52-.55,6.73-5.57a4.44,4.44,0,0,0-2.31-3.46Z"/><path class="cls-2" d="M53.27,37a.63.63,0,0,1-.36-.07,4.09,4.09,0,0,1-2.46-3.19c-.32-3.26,3.91-6.75,4.09-6.89a.62.62,0,0,1,.39-.14h2.69a.63.63,0,0,1,.33.09,5.05,5.05,0,0,1,2.61,4,.77.77,0,0,1,0,.15C59.24,36.32,53.33,37,53.27,37Zm1.89-9C54,29,51.5,31.56,51.71,33.6a2.75,2.75,0,0,0,1.62,2.1c.92-.14,5-1,6-5A3.89,3.89,0,0,0,57.43,28Z"/><path class="cls-2" d="M59.47,28s10.23,6.55,7.77,9.84c0,0,.65-1.07-2.26-3S61.86,29.32,59.47,28Z"/><path class="cls-2" d="M67.31,37.93l-.15-.1s.55-1-2.23-2.83a9.39,9.39,0,0,1-3-3.81A8.54,8.54,0,0,0,60,28.5l-.57-.38.09-.16a3.76,3.76,0,0,1,.59.39c6.54,4.46,7.45,7.21,7.58,7.95A2.05,2.05,0,0,1,67.31,37.93Zm-6.52-8.87a12.72,12.72,0,0,1,1.26,2.05,9.35,9.35,0,0,0,3,3.74c1.87,1.2,2.3,2.09,2.36,2.6a1.91,1.91,0,0,0,.12-1.12C67.08,33.85,62.94,30.59,60.79,29.06Z"/><path class="cls-4" d="M58.69,27.53s11.84,6.67,12.59,7.29c0,0,12.28,9.48,13.5,6.67s-9.43-9.18-9.43-9.18S61.55,27.25,58.69,27.53Z"/><path class="cls-2" d="M84.05,42.63h0c-3.18.31-12.15-6.53-13.16-7.31-.54-.44-8-4.67-12.51-7.24a.61.61,0,0,1-.3-.67.63.63,0,0,1,.55-.5c2.91-.29,15.51,4.29,16.94,4.81l.11.05c2.61,1.56,11,6.89,9.68,10A1.53,1.53,0,0,1,84.05,42.63Zm-22-14c3.61,2.05,9.13,5.21,9.67,5.65,3.66,2.82,10.24,7.24,12.26,7h0c.23,0,.26-.09.28-.14.62-1.41-4.25-5.43-9.13-8.35C72.27,31.85,66,29.69,62,28.68Z"/><path class="cls-7" d="M25.22,70.05S15.4,56.15,36.38,46.5l.66-.3.6-.22s-1.86,4.59-1.24,8.27.12,11.28-2.76,14.26-6.41,2.28-7.15,2.36S25.22,70.05,25.22,70.05Z"/><path class="cls-2" d="M28.84,71.47a13.11,13.11,0,0,1-1.84,0,3.7,3.7,0,0,0-.45,0,2.2,2.2,0,0,1-1.87-1.12,14.64,14.64,0,0,1-1.94-11.44c1.39-5.19,5.89-9.56,13.38-13l.66-.3.64-.24a.62.62,0,0,1,.67.15.61.61,0,0,1,.13.67s-1.78,4.48-1.2,7.94.28,11.47-2.92,14.79A8.28,8.28,0,0,1,28.84,71.47ZM36.58,47.1C29.49,50.37,25.24,54.46,24,59.25a13.52,13.52,0,0,0,1.78,10.43c.14.23.46.58.69.56H27a10.88,10.88,0,0,0,1.68,0,6.94,6.94,0,0,0,4.47-2.14C36,65.2,36.34,57.73,35.78,54.36A17,17,0,0,1,36.58,47.1Z"/><path class="cls-2" d="M40.72,44.34A2.24,2.24,0,0,0,40.24,46a10.72,10.72,0,0,0,1.06,4.22c2,4.63,1.85,11.74.31,14.55s-4.34,7.23-11.94,7c0,0,9.54-.45,9.36-13.68,0,0-.14-5.4-.23-6.33C38.8,51.72,38.36,48.76,40.72,44.34Z"/><path class="cls-2" d="M38,98.59a1.65,1.65,0,0,1-.44-1.37A6.52,6.52,0,0,1,38.87,94c2.29-3.5,2.42-9.22.89-11.66s-4.35-6.3-12.44-7c0,0,10.13,1.44,9.44,12.06,0,0-.36,4.32-.49,5.06C36.27,92.44,35.69,94.77,38,98.59Z"/><path class="cls-7" d="M25.72,77.16s-10.24,9,7.56,19.57l.56.33.52.27s-1.19-3.77-.26-6.47,1.28-8.53-1-11.23S27.6,76.9,27,76.73A1.42,1.42,0,0,0,25.72,77.16Z"/><path class="cls-2" d="M34.42,98a.7.7,0,0,1-.35-.06l-.52-.27L33,97.28c-6.73-4-10.35-8.26-10.76-12.69a9.91,9.91,0,0,1,3.11-7.9,2.07,2.07,0,0,1,1.23-.61,1.75,1.75,0,0,1,.56,0,3.9,3.9,0,0,0,.4.07,9.17,9.17,0,0,1,6.09,3C36,82,35.75,88,34.7,91.06c-.85,2.47.25,6,.26,6.08a.63.63,0,0,1-.54.81ZM26.67,77.33a1.09,1.09,0,0,0-.5.27,8.85,8.85,0,0,0-2.72,6.89c.38,4,3.73,7.85,10,11.59a11,11,0,0,1,.1-5.43c.84-2.43,1.26-8.07-.88-10.62a8,8,0,0,0-5.3-2.6,4.53,4.53,0,0,1-.54-.09Z"/><path class="cls-1" d="M15.66,66.76s8.6-3,9.7,8.15c0,0-.9,6.26-6.61,2.75l-4.08-6.81Z"/><path class="cls-2" d="M22.23,79.34a6.29,6.29,0,0,1-3.81-1.14.84.84,0,0,1-.21-.21l-4.08-6.82a.64.64,0,0,1-.07-.47l1-4.09a.66.66,0,0,1,.41-.45,8.34,8.34,0,0,1,1.8-.36c2.34-.24,7.86.18,8.74,9V75C26,75.16,25.37,79,22.23,79.34Zm-3-2.14a4.94,4.94,0,0,0,2.9.89c2-.2,2.54-2.75,2.62-3.21-.33-3.2-1.74-8.39-7.36-7.83a8,8,0,0,0-1.19.21l-.84,3.48Z"/><path class="cls-1" d="M12.88,75.12s1.32,8.18,2.68,9.3c0,0,3.38,5.46,5.31,2.09a9.2,9.2,0,0,0-.71-5.9s.11-.86-5.08-9S12.88,75.12,12.88,75.12Z"/><path class="cls-2" d="M19.54,88.23h0c-2.06.2-4.08-2.79-4.47-3.41-1.43-1.4-2.59-8.22-2.81-9.6-.42-1.59-1.33-5.54-.56-6.64a1,1,0,0,1,.7-.42c.66-.07,1.46.45,3.21,3.16,2.22,3.46,4.82,7.7,5.15,9.08a9.74,9.74,0,0,1,.72,6.27.44.44,0,0,1-.06.16A2.5,2.5,0,0,1,19.54,88.23ZM12.66,69.55A20,20,0,0,0,13.49,75c.64,4,1.73,8.37,2.46,9a.66.66,0,0,1,.14.15c.61,1,2.24,3,3.32,2.89.11,0,.47,0,.87-.69a8.71,8.71,0,0,0-.68-5.39.62.62,0,0,1-.07-.23c0-.16-.48-1.66-5-8.66A11.07,11.07,0,0,0,12.66,69.55Z"/><path class="cls-1" d="M10,72.34,9,74.17s-.31,6.5,3.29,9.46c0,0,2.39,1.27,1.48-3.63l-1.19-6.71Z"/><path class="cls-2" d="M13,84.4h0A2,2,0,0,1,12,84.18l-.1-.06c-3.81-3.13-3.54-9.7-3.53-10a.65.65,0,0,1,.08-.27l1-1.84a.63.63,0,0,1,.77-.28l2.57,1a.63.63,0,0,1,.4.48l1.19,6.71c.36,1.92.27,3.2-.26,3.91A1.47,1.47,0,0,1,13,84.4Zm-.44-1.31a.73.73,0,0,0,.32.06h0a.23.23,0,0,0,.17-.11c.14-.18.42-.84,0-2.92L12,73.75l-1.73-.64-.68,1.23C9.58,75.27,9.63,80.58,12.6,83.09Z"/><path class="cls-1" d="M9.05,67.07s-2.3-3.38-2.45-.28c0,0-.48,9,2.37,7.38L10.74,71Z"/><path class="cls-2" d="M8.47,75h0a1.53,1.53,0,0,1-1.21-.43C5.72,73.09,5.92,67.8,6,66.76c.06-1.19.45-1.83,1.16-1.9,1-.1,2,1.26,2.44,1.85l.06.1,1.69,3.89a.68.68,0,0,1,0,.56L9.52,74.48a.76.76,0,0,1-.23.24A2.16,2.16,0,0,1,8.47,75ZM7.33,66.15a2,2,0,0,0-.1.67c-.13,2.37.07,6,.9,6.83a.26.26,0,0,0,.22.1h0l.16,0L10,70.92,8.5,67.37A4.91,4.91,0,0,0,7.33,66.15Z"/><path class="cls-1" d="M10.4,62.8s-.72-5.9-2.22-7.13c0,0-3.16,7.5-.62,9.58l1.49,1.82Z"/><path class="cls-2" d="M9.11,67.69a.62.62,0,0,1-.54-.22L7.11,65.69c-2.73-2.35.16-9.46.5-10.27A.59.59,0,0,1,8,55.06a.57.57,0,0,1,.55.12c1.65,1.35,2.36,6.91,2.44,7.54A.82.82,0,0,1,11,63L9.65,67.25a.6.6,0,0,1-.48.43ZM8.35,57c-.83,2.36-1.89,6.54-.39,7.77l.09.09.75.92,1-3A22.74,22.74,0,0,0,8.35,57Z"/><path class="cls-1" d="M10.3,63.07a.89.89,0,0,0-.05-.32c-.42-1.23-3-9.63,3.09-14.55h0a.82.82,0,0,1,1.32.57c.23,2.16.28,6.75-1.9,13.34C9.92,70.71,10.23,64.22,10.3,63.07Z"/><path class="cls-2" d="M10.76,67.13a.8.8,0,0,1-.64-.23c-.2-.19-.65-.63-.45-3.87a.17.17,0,0,0,0-.07c-.35-1-3.22-10,3.29-15.26a1.53,1.53,0,0,1,.75-.3,1.46,1.46,0,0,1,1.59,1.3c.23,2.21.28,6.91-1.93,13.61C11.92,66.67,11.33,67.07,10.76,67.13Zm3.06-18.47a.14.14,0,0,0-.1,0c-5.82,4.68-3.19,12.92-2.87,13.85a1.52,1.52,0,0,1,.08.56,17.37,17.37,0,0,0,0,2.12,28.09,28.09,0,0,0,1.26-3.32c2.14-6.47,2.1-11,1.88-13.08A.2.2,0,0,0,13.82,48.66Z"/><path class="cls-1" d="M12.82,61.78c.43-2.09,3.12-13.29,10.05-7.4a.84.84,0,0,1,.29.65c-.05,2-.6,11.49-7,11.73a.81.81,0,0,1-.7-.39l-2.48-4A.84.84,0,0,1,12.82,61.78Z"/><path class="cls-2" d="M16.58,67.36l-.44,0a1.44,1.44,0,0,1-1.26-.69l-2.48-4a1.4,1.4,0,0,1-.19-1.06c.44-2.14,2.21-9.14,6.52-9.57a6.26,6.26,0,0,1,4.55,1.82,1.46,1.46,0,0,1,.5,1.14C23.74,57,23.2,66.7,16.58,67.36Zm2.27-14c-2.74.28-4.63,4.79-5.41,8.58a.23.23,0,0,0,0,.14l2.48,4a.2.2,0,0,0,.15.1c5.94-.21,6.4-9.32,6.44-11.11a.24.24,0,0,0-.07-.16A5.09,5.09,0,0,0,18.85,53.33Z"/><path class="cls-8" d="M15.88,68.19c.36,3.63-.87,6.72-2.74,6.91s-3.68-2.61-4-6.23S10,62.15,11.84,62,15.52,64.56,15.88,68.19Z"/><path class="cls-2" d="M13.2,75.72C11,76,8.87,73,8.47,68.93s1-7.37,3.31-7.59,4.33,2.76,4.73,6.79S15.45,75.5,13.2,75.72ZM11.9,62.59c-1.31.13-2.52,2.71-2.18,6.21s2,5.8,3.36,5.67,2.52-2.71,2.17-6.22S13.21,62.46,11.9,62.59Z"/><path class="cls-8" d="M14.14,68.23c.22,2.21-.5,4.09-1.61,4.2s-2.19-1.59-2.41-3.8.5-4.09,1.61-4.2S13.92,66,14.14,68.23Z"/><ellipse class="cls-3" cx="99.01" cy="64.4" rx="0.9" ry="3.48" transform="translate(-11.24 22.03) rotate(-12.02)"/><ellipse class="cls-3" cx="104.59" cy="60.68" rx="0.61" ry="3.48" transform="translate(-10.34 23.11) rotate(-12.02)"/><path class="cls-5" d="M67.5,99.31,81,91.61s3.65,9.19-1.27,11.93C79.72,103.54,73.72,109.18,67.5,99.31Z"/><path class="cls-2" d="M76.14,105.74c-2.29.23-5.74-.65-9.17-6.1a.64.64,0,0,1-.08-.49.65.65,0,0,1,.3-.39l13.48-7.69a.63.63,0,0,1,.52,0,.62.62,0,0,1,.38.36c.16.4,3.77,9.66-1.48,12.67A7.36,7.36,0,0,1,76.14,105.74Zm-7.75-6.22c2.36,3.52,5,5.23,7.62,5a6.14,6.14,0,0,0,3.28-1.41.38.38,0,0,1,.13-.09c3.64-2,1.92-8.36,1.22-10.46Z"/><path class="cls-5" d="M77.59,74.74a6.3,6.3,0,0,1-6.89-5.66A6.22,6.22,0,0,1,72,64.66,7,7,0,1,0,83,70.12,6.31,6.31,0,0,1,77.59,74.74Z"/><path class="cls-2" d="M80.46,67.44a1.66,1.66,0,0,1-.78.3,1.69,1.69,0,0,1-1.85-1.52,1.67,1.67,0,0,1,.34-1.2,3.74,3.74,0,0,0-1.57-.19,3.65,3.65,0,1,0,4,3.27A3.51,3.51,0,0,0,80.46,67.44Z"/><path class="cls-2" d="M77.59,74.74a6.31,6.31,0,0,1-1.25-12.56c.21,0,.43,0,.64,0a7.21,7.21,0,0,0-1.74,0,7,7,0,1,0,7.25,9.39A6.31,6.31,0,0,1,77.59,74.74Z"/><polygon class="cls-8" points="8.42 77.28 8.88 74.57 7.37 74.72 8.42 77.28"/><path class="cls-2" d="M8.48,77.91a.63.63,0,0,1-.64-.39L6.78,75a.64.64,0,0,1,0-.57.61.61,0,0,1,.47-.3L8.82,74a.6.6,0,0,1,.52.2.61.61,0,0,1,.16.53L9,77.39a.63.63,0,0,1-.55.51Z"/><path class="cls-2" d="M71.58,106.51s7.35,4.44,12.1-4.44Z"/><path class="cls-2" d="M12,46.2l1.9,1.64s-5.12,3.3-4.59,8.29l-2.11-.89Z"/><path class="cls-3" d="M77,41.11c.78-.16-.28,3.64-.37,3.81-2.44,4.45-8.57,6.51-13,8.21A13.27,13.27,0,0,1,54.31,53a16.11,16.11,0,0,1-4.19-2.09,42.08,42.08,0,0,1-3.42-3.8Z"/><path class="cls-6" d="M58.78,51.41c-4.73.47-9.54-3.09-9.78-3.27a.63.63,0,0,1,.75-1c.07,0,6.58,4.86,11.29,2.31a148.73,148.73,0,0,0,13.7-8.36c-.4-.33-1.75-1.12-6.09-2a.62.62,0,0,1-.48-.75.61.61,0,0,1,.74-.48c4.07.87,6.44,1.8,7.06,2.79a1,1,0,0,1,.17.56c0,.44-.15.85-5.44,4.11-3,1.85-6.55,3.93-9.06,5.28A7.57,7.57,0,0,1,58.78,51.41Z"/><path class="cls-2" d="M63.9,42.55c.11.19-.24.57-.75.85s-1,.35-1.14.15.25-.57.77-.84S63.8,42.36,63.9,42.55Z"/><path class="cls-2" d="M62.44,44.28a.91.91,0,0,1-1-.43c-.28-.56.12-1.22,1-1.7a2.93,2.93,0,0,1,1-.33.93.93,0,0,1,1,.44.78.78,0,0,1,.05.62A2.16,2.16,0,0,1,63.44,44,2.73,2.73,0,0,1,62.44,44.28Z"/><path class="cls-2" d="M62.65,43.91s-.76,1.06-.72,1.4.33.85,1.08.51,2.76-1.66,2.76-1.66.67-.79-.31-.92l-1.23-.18Z"/><path class="cls-2" d="M62.69,46.56h0a1.27,1.27,0,0,1-1.39-1.19c0-.14-.06-.57.84-1.83a.64.64,0,0,1,.21-.19l1.59-.84a.56.56,0,0,1,.38-.07l1.23.17a1.15,1.15,0,0,1,1,.69,1.35,1.35,0,0,1-.31,1.27.53.53,0,0,1-.14.12,33.05,33.05,0,0,1-2.84,1.7A1.9,1.9,0,0,1,62.69,46.56Zm-.13-1.27s0,0,0,0v0a.48.48,0,0,0,.18,0c.5-.23,1.71-1,2.39-1.42l-.79-.12-1.27.68A5.31,5.31,0,0,0,62.56,45.29Z"/><path class="cls-2" d="M64.74,42.67l.24-.52s4.6-2,5.16-1-2.91,1.65-2.91,1.65Z"/><path class="cls-2" d="M67.29,43.42H67.2l-2.49-.12A.64.64,0,0,1,64.2,43a.62.62,0,0,1,0-.59l.24-.52a.64.64,0,0,1,.32-.31A19.37,19.37,0,0,1,69,40.26c.31,0,1.27-.12,1.67.57a1.05,1.05,0,0,1,0,1c-.44,1-2.52,1.45-3.39,1.62Zm-.53-1.28.43,0a9.2,9.2,0,0,0,2-.65h-.1A10.75,10.75,0,0,0,66.76,42.14Z"/><path class="cls-2" d="M61.39,44.11l-2.26,1.23s-2.63,1.54-1.39,2.11S60.67,46,60.67,46l1.2-1.79Z"/><path class="cls-2" d="M58.41,48.17h0a1.81,1.81,0,0,1-.93-.15,1.07,1.07,0,0,1-.7-.93c-.05-.93,1.25-1.84,2-2.29l2.28-1.25a.64.64,0,0,1,.43-.06l.48.1a.64.64,0,0,1,.45.38.62.62,0,0,1-.06.59l-1.2,1.79,0,.06A5.16,5.16,0,0,1,58.41,48.17Zm-.28-1.26h.16a4,4,0,0,0,1.88-1.3l.13-.2-.87.47A5.92,5.92,0,0,0,58.13,46.91Z"/><path class="cls-2" d="M61,43.71l.22-.52s-2.83,0-3.51.62c0,0-1.62.53-1.13,1.94,0,0,.41.42,1.46-.15S61,43.71,61,43.71Z"/><path class="cls-2" d="M57.22,46.52h0a1.38,1.38,0,0,1-1.13-.33.61.61,0,0,1-.15-.24A2,2,0,0,1,56,44.42a2.57,2.57,0,0,1,1.35-1.16,4.74,4.74,0,0,1,2.32-.61c.78-.08,1.46-.09,1.49-.09a.66.66,0,0,1,.53.28.61.61,0,0,1,0,.6l-.22.52a.55.55,0,0,1-.22.26c-.08.06-1.94,1.35-3,1.94A2.86,2.86,0,0,1,57.22,46.52Zm-.14-1.25h0a1.6,1.6,0,0,0,.61-.22c.49-.27,1.2-.72,1.79-1.11a3.16,3.16,0,0,0-1.41.35.63.63,0,0,1-.21.12,1.41,1.41,0,0,0-.73.57A.48.48,0,0,0,57.08,45.27Z"/><path class="cls-2" d="M62,42.74s-2.19.52-2.26-.22,2.55-2,3.93-1.77c0,0,.73.13.09.91l-.56.5Z"/><path class="cls-2" d="M61.14,43.52c-1.59.16-2-.42-2-.94-.13-1.26,2.42-2.33,3.79-2.47a3.62,3.62,0,0,1,.88,0,1.06,1.06,0,0,1,.8.65,1.28,1.28,0,0,1-.34,1.28l-.07.07-.57.5a.42.42,0,0,1-.14.09l-1.19.59-.13,0A10,10,0,0,1,61.14,43.52Zm-.5-1.23.38,0c.33,0,.63-.1.76-.13l1-.51.31-.28A5.68,5.68,0,0,0,60.64,42.29Z"/><path class="cls-2" d="M64.27,41.7a3.52,3.52,0,0,1,2.9-1.79c2.19-.21,2.7,0,.44,1L65,41.73Z"/><path class="cls-2" d="M65,42.36h-.09l-.69,0a.63.63,0,0,1-.51-.3.62.62,0,0,1,0-.59,4.12,4.12,0,0,1,3.41-2.15c1.47-.15,2.39-.19,2.57.53s-.6,1.1-1.82,1.64l-2.7.87A.61.61,0,0,1,65,42.36Z"/><path class="cls-2" d="M16.18,52.52s4.19-11.77,10.47-8.92c0,0,1.87,1.24-2.18,5.8,0,0-2,2.16-3.87.63a2.15,2.15,0,0,1,.24-3s.67-.69,1.05-.6a3.21,3.21,0,0,0-2.25,3.84s1.25,3.13,5.27.07c0,0,2.47-2.59,2.67-4.57,0,0,.49-3-.62-3.29C27,42.46,19.11,41.59,16.18,52.52Z"/><path class="cls-2" d="M16.19,52.67h-.06a.16.16,0,0,1-.11-.19c.77-2.84,3.24-9.51,9.77-10.16a6.42,6.42,0,0,1,1.18,0c1.24.37.81,3.16.76,3.47-.2,2-2.61,4.55-2.71,4.66a6,6,0,0,1-2.94,1.37h0a2.54,2.54,0,0,1-2.59-1.49A3.29,3.29,0,0,1,21,46.62c.37-.29.67-.42.9-.36a.14.14,0,0,1,.12.15.16.16,0,0,1-.12.15,3.52,3.52,0,0,0-.72.32l-.26.24a2,2,0,0,0-.23,2.81,2,2,0,0,0,1.54.48,3.94,3.94,0,0,0,2.1-1.11c2.28-2.57,2.64-4,2.55-4.83a1,1,0,0,0-.35-.74,4.46,4.46,0,0,0-2.28-.4c-4.78.48-7.92,9.15-8,9.24A.14.14,0,0,1,16.19,52.67ZM20,48.18a3.23,3.23,0,0,0-.2,2,2.22,2.22,0,0,0,2.26,1.27h0a5.73,5.73,0,0,0,2.76-1.3s2.42-2.55,2.61-4.46c.13-.79.29-2.88-.51-3.12h0a6.11,6.11,0,0,0-1.09,0,8.92,8.92,0,0,0-2.14.47,4.71,4.71,0,0,1,3,.34,1.35,1.35,0,0,1,.51,1c.11.85-.26,2.42-2.63,5.1a4.18,4.18,0,0,1-2.3,1.22,2.4,2.4,0,0,1-1.79-.57A2.41,2.41,0,0,1,20,48.18Zm-.25-2.34a13.89,13.89,0,0,0-1.68,2.4l.18-.29A17.67,17.67,0,0,1,19.74,45.84Z"/><ellipse class="cls-2" cx="22.14" cy="48.65" rx="2.22" ry="2.3" transform="translate(-4.48 2.3) rotate(-5.4)"/><path class="cls-2" d="M22.38,51.1a2.46,2.46,0,1,1,2.12-2.68A2.42,2.42,0,0,1,22.38,51.1Zm-.45-4.58a2.15,2.15,0,1,0,2.26,1.93A2.11,2.11,0,0,0,21.93,46.52Z"/><path class="cls-4" d="M63.9,42.55c.11.19-.24.57-.75.85s-1,.35-1.14.15.25-.57.77-.84S63.8,42.36,63.9,42.55Z"/><path class="cls-1" d="M62.65,43.91s-.76,1.06-.72,1.4.33.85,1.08.51,2.76-1.66,2.76-1.66.67-.79-.31-.92l-1.23-.18Z"/><path class="cls-1" d="M64.74,42.67l.24-.52s4.6-2,5.16-1-2.91,1.65-2.91,1.65Z"/><path class="cls-1" d="M61.39,44.11l-2.26,1.23s-2.63,1.54-1.39,2.11S60.67,46,60.67,46l1.2-1.79Z"/><path class="cls-1" d="M61,43.71l.22-.52s-2.83,0-3.51.62c0,0-1.62.53-1.13,1.94,0,0,.41.42,1.46-.15S61,43.71,61,43.71Z"/><path class="cls-1" d="M62,42.74s-2.19.52-2.26-.22,2.55-2,3.93-1.77c0,0,.73.13.09.91l-.56.5Z"/><path class="cls-1" d="M64.27,41.7a3.52,3.52,0,0,1,2.9-1.79c2.19-.21,2.7,0,.44,1L65,41.73Z"/><path class="cls-6" d="M50.68,79.65s3.07-6.83-4-9.14c0,0-4.32-.91-5.63,4.31,0,0,.15,5.46,5.31,5.87a4.11,4.11,0,0,0,4-1.82,4.9,4.9,0,0,1-.65,1.62,5.12,5.12,0,0,1-6.24-.27,8.73,8.73,0,0,1-3-5.42s.66-2.86,2.52-4.1,5.38-.82,6.68.5,2.78,2.41,2.62,5.5-.53,2.49-.53,2.49Z"/><path class="cls-6" d="M42.49,74.89s1.55-3.12,3.77-2.11,3,3.59,1.58,5-3.45.53-4.86-1.34l-.58-1.07s-.48-.12-.25.54,2.72,3.93,5.2,3.12,2-4.17,1.7-4.41S47.59,72,45.24,72.22a3.66,3.66,0,0,0-3,2.51S42.14,74.93,42.49,74.89Z"/><path class="cls-6" d="M45.49,74.79s-.38-.38-.94.73c0,0,.6.78,1.27.72s.2-.82.2-.82,0-.55.41-.19,0,1.37-.38,1.41a2.67,2.67,0,0,1-2.19-1s1-1.68,1.54-1.28S45.49,74.79,45.49,74.79Z"/><path class="cls-6" d="M20.24,40.14s-1.55,4.28-4.42,5.4.52-3,.52-3S13.81,45.67,14.66,46s1.76.1,3.32-1.81C18,44.17,20.09,42.06,20.24,40.14Z"/><path class="cls-6" d="M15.88,45.2S15,43.78,17.4,42.32s-.81,2.62-1.39,2.91l-.23.27a13.37,13.37,0,0,0,2.54-2.72c.63-1.15,0-1.29-1.32-.46s-1.78,2.59-1.48,3.16a.43.43,0,0,0,0,.07Z"/><path class="cls-6" d="M16.41,44.27s1-1.24.45-1-.54,1-.53,1a2,2,0,0,1-.2.26s.19-1.23.8-1.57.24.41.16.5l-.56.8A.08.08,0,0,1,16.41,44.27Z"/><path class="cls-6" d="M16.76,88.15a5.86,5.86,0,0,1,3.5,4.41s0,.06,0,.09.09.55-.84-.21-2.78-2-2.89-4.2l.09-.44-.19-.16s-1.62,1.66,3.73,5.41c0,0,.83.55.3-1S18,88.12,17,88h0Z"/><path class="cls-6" d="M16.89,88.57l.16.5a4.81,4.81,0,0,1,2.2,2.54s-1.31-.12-2.09-2.16L16.92,89a4.92,4.92,0,0,0,2.5,3s.65.08-.4-1.7A8.57,8.57,0,0,0,16.89,88.57Z"/><path class="cls-6" d="M17.92,90.15a.61.61,0,0,1,.44.53c0,.44-.69-.4-.59-.64l-.11-.27s-.27.59.66,1.21c0,0,.51.14-.07-.77C18.25,90.21,18,90,17.92,90.15Z"/><path class="cls-6" d="M26.5,69.44s10.61-13.69,8.12-15.09l-1.82.18s.91,1.16.58,1.79C33.38,56.32,31.79,62,26.5,69.44Z"/><path class="cls-6" d="M37.14,98.22a.27.27,0,0,1-.21-.06A4.66,4.66,0,0,1,35,94.45L35,94c-.16-1.18.32-8.42.34-8.73-.2-8.38-9-9.28-9.13-9.28a.31.31,0,0,1-.28-.34.31.31,0,0,1,.33-.29c.1,0,9.5,1,9.7,9.93-.17,2.61-.46,7.73-.34,8.62,0,.14,0,.3.06.45a4.13,4.13,0,0,0,1.66,3.28.32.32,0,0,1,.07.44A.31.31,0,0,1,37.14,98.22Z"/><path class="cls-6" d="M28.64,72.06a9.65,9.65,0,0,1-2,0,.32.32,0,1,1,.08-.64A10.13,10.13,0,0,0,34.11,69c2.38-2.24,3.45-5.87,3.17-10.79-.78-13.62,1.82-14.72,5.1-16.11.38-.16.77-.33,1.16-.52a.32.32,0,0,1,.28.58c-.4.2-.8.37-1.19.53C39.58,44,37.17,45,37.92,58.19c.29,5.13-.84,8.93-3.37,11.31A10.05,10.05,0,0,1,28.64,72.06Z"/><path class="cls-6" d="M56.28,28.6s-2.1,3-2.06,4.19a.46.46,0,0,0,.16.39C55.21,33.87,56,32.56,56.28,28.6Z"/><path class="cls-6" d="M65,29.77s13.65,5.4,14.23,7.17C79.22,36.94,81,38.18,65,29.77Z"/><path class="cls-6" d="M25.86,68.5s6.29-7.46,1.62-8.25a3.44,3.44,0,0,1,.7,3C27.64,64.83,25.86,68.5,25.86,68.5Z"/><path class="cls-6" d="M26.94,78.26S34.16,89,32.05,89.6l-1.45-.38s.84-.66.63-1.13A32,32,0,0,0,26.94,78.26Z"/><path class="cls-6" d="M34.39,49.73h0a.13.13,0,0,1-.08-.14l.13-.51a.11.11,0,0,1,.13-.08.11.11,0,0,1,.09.13l-.13.52A.11.11,0,0,1,34.39,49.73Z"/><path class="cls-6" d="M33.65,50.27h0a.11.11,0,0,1-.09-.13l.14-.69a.12.12,0,0,1,.13-.09.11.11,0,0,1,.09.13l-.14.69A.12.12,0,0,1,33.65,50.27Z"/><path class="cls-6" d="M32.81,50.86h-.06a.11.11,0,0,1-.06-.14l.38-1a.12.12,0,0,1,.15-.07.13.13,0,0,1,.06.15l-.38.95A.11.11,0,0,1,32.81,50.86Z"/><path class="cls-6" d="M32.08,51.41h0a.11.11,0,0,1-.07-.14l.38-1.09a.11.11,0,0,1,.14-.07.12.12,0,0,1,.07.15l-.38,1.08A.11.11,0,0,1,32.08,51.41Z"/><path class="cls-6" d="M31.32,52.16h0A.11.11,0,0,1,31.2,52l.35-1.36a.11.11,0,0,1,.21.05l-.35,1.37A.11.11,0,0,1,31.32,52.16Z"/><path class="cls-6" d="M30.67,52.58h0a.11.11,0,0,1-.09-.13l.25-1.3a.11.11,0,1,1,.22,0l-.25,1.3A.11.11,0,0,1,30.67,52.58Z"/><path class="cls-6" d="M29.87,53.49h0a.11.11,0,0,1-.09-.13l.39-1.76a.11.11,0,0,1,.13-.08.11.11,0,0,1,.09.13L30,53.41A.11.11,0,0,1,29.87,53.49Z"/><path class="cls-6" d="M29.27,54.06h0a.11.11,0,0,1-.1-.12l.18-1.71a.12.12,0,0,1,.13-.1.1.1,0,0,1,.09.12L29.37,54A.11.11,0,0,1,29.27,54.06Z"/><path class="cls-6" d="M28.52,54.94h0a.1.1,0,0,1-.09-.12l.3-2.08a.1.1,0,0,1,.12-.09.11.11,0,0,1,.1.13l-.3,2.07A.11.11,0,0,1,28.52,54.94Z"/><path class="cls-6" d="M27.81,55.68h0a.11.11,0,0,1-.11-.11l.17-2a.11.11,0,0,1,.12-.1.12.12,0,0,1,.1.12l-.16,2A.11.11,0,0,1,27.81,55.68Z"/><path class="cls-6" d="M27.28,56.46a.12.12,0,0,1-.12-.1c0-.19-.21-1.85.09-2.24a.1.1,0,0,1,.15,0,.11.11,0,0,1,0,.16,5.25,5.25,0,0,0,0,2.07.12.12,0,0,1-.1.13Z"/><path class="cls-6" d="M26.83,57.61a.11.11,0,0,1-.12-.1c-.05-.4-.26-2.43,0-2.8a.1.1,0,0,1,.15,0,.11.11,0,0,1,0,.16,8.13,8.13,0,0,0,0,2.64.11.11,0,0,1-.1.12Z"/><path class="cls-6" d="M26.35,58.59a.12.12,0,0,1-.12-.1A10.05,10.05,0,0,1,26,55.65a.1.1,0,0,1,.15,0,.11.11,0,0,1,0,.15,12.23,12.23,0,0,0,.23,2.68.11.11,0,0,1-.09.13Z"/><path class="cls-6" d="M25.52,61.46a.12.12,0,0,1-.12-.09A20.9,20.9,0,0,1,25,57.61a.1.1,0,0,1,.12-.09.11.11,0,0,1,.09.13,22,22,0,0,0,.44,3.68.12.12,0,0,1-.09.13Z"/><path class="cls-6" d="M25.24,63a.11.11,0,0,1-.12-.09c0-.14-.66-3.48-.61-4a.11.11,0,0,1,.12-.1.12.12,0,0,1,.1.13c0,.37.43,2.94.61,3.9a.11.11,0,0,1-.09.13Z"/><path class="cls-6" d="M26,60.43a.1.1,0,0,1-.11-.06,14,14,0,0,1-.51-4,.12.12,0,0,1,.11-.11.11.11,0,0,1,.11.11,14.17,14.17,0,0,0,.49,3.86.11.11,0,0,1-.05.15Z"/><path class="cls-6" d="M25.79,67.29s-.08,0-.11-.06a13.83,13.83,0,0,1-1.63-6.06.11.11,0,0,1,.12-.11.11.11,0,0,1,.1.12,13.66,13.66,0,0,0,1.61,5.95.11.11,0,0,1-.05.15Z"/><path class="cls-6" d="M33,95.22a.1.1,0,0,1-.12-.09l-.08-.44a.11.11,0,0,1,.09-.13.11.11,0,0,1,.13.09l.08.44a.11.11,0,0,1-.09.13Z"/><path class="cls-6" d="M32.34,94.82a.12.12,0,0,1-.12-.1l-.08-.6a.12.12,0,0,1,.1-.12.09.09,0,0,1,.12.09l.08.6a.11.11,0,0,1-.09.13Z"/><path class="cls-6" d="M31.77,94.45a.11.11,0,0,1-.12-.07l-.29-.85a.11.11,0,0,1,.21-.07l.29.85a.12.12,0,0,1-.06.14Z"/><path class="cls-6" d="M31.09,94a.1.1,0,0,1-.12-.08l-.28-1a.11.11,0,1,1,.22-.06l.27,1a.11.11,0,0,1-.08.14Z"/><path class="cls-6" d="M30.35,93.49a.1.1,0,0,1-.12-.08L30,92.22a.11.11,0,0,1,.09-.13.1.1,0,0,1,.13.08l.23,1.19a.11.11,0,0,1-.09.13Z"/><path class="cls-6" d="M29.66,93a.11.11,0,0,1-.12-.1l-.14-1.12a.11.11,0,0,1,.1-.12.09.09,0,0,1,.12.09l.14,1.13a.11.11,0,0,1-.1.12Z"/><path class="cls-6" d="M29.05,92.5a.1.1,0,0,1-.12-.09l-.23-1.52a.11.11,0,0,1,.09-.13.11.11,0,0,1,.13.1l.23,1.52a.11.11,0,0,1-.1.12Z"/><path class="cls-6" d="M28.3,91.87h0a.11.11,0,0,1-.11-.11l0-1.45a.13.13,0,0,1,.11-.12.11.11,0,0,1,.11.11l0,1.45A.12.12,0,0,1,28.3,91.87Z"/><path class="cls-6" d="M27.73,91.35h0a.13.13,0,0,1-.12-.11l-.12-1.77a.12.12,0,0,1,.11-.12.1.1,0,0,1,.11.11l.12,1.77A.11.11,0,0,1,27.73,91.35Z"/><path class="cls-6" d="M27,90.57h0a.11.11,0,0,1-.11-.11l0-1.72a.11.11,0,0,1,.22,0l0,1.72A.11.11,0,0,1,27,90.57Z"/><path class="cls-6" d="M26.41,89.94a.1.1,0,0,1-.1,0c-.27-.37,0-1.65.1-1.91a.11.11,0,0,1,.13-.08.11.11,0,0,1,.08.14,3.58,3.58,0,0,0-.13,1.72.11.11,0,0,1,0,.15Z"/><path class="cls-6" d="M26,89.37a.11.11,0,0,1-.1,0c-.25-.36.13-2,.21-2.36a.11.11,0,0,1,.13-.09.13.13,0,0,1,.09.14A5.91,5.91,0,0,0,26,89.2a.1.1,0,0,1,0,.15Z"/><path class="cls-6" d="M25.35,88.49a.11.11,0,0,1-.11,0,7.22,7.22,0,0,1,.44-2.36.1.1,0,0,1,.13-.07.1.1,0,0,1,.08.13,9.4,9.4,0,0,0-.46,2.19.1.1,0,0,1,0,.15Z"/><path class="cls-6" d="M24.48,86.74h0a.1.1,0,0,1-.11-.1,14.71,14.71,0,0,1,.75-3.08.1.1,0,0,1,.14-.07.12.12,0,0,1,.07.14,15.12,15.12,0,0,0-.74,3A.1.1,0,0,1,24.48,86.74Z"/><path class="cls-6" d="M24.14,85.59h0a.11.11,0,0,1-.11-.11A27.12,27.12,0,0,1,25,82.25a.11.11,0,0,1,.14-.07.12.12,0,0,1,.07.14,25.31,25.31,0,0,0-.94,3.15A.12.12,0,0,1,24.14,85.59Z"/><path class="cls-6" d="M24.78,87.82h0a.11.11,0,0,1-.1-.13,9.94,9.94,0,0,1,.84-3.23.12.12,0,0,1,.16,0,.11.11,0,0,1,0,.16,9.84,9.84,0,0,0-.8,3.13A.13.13,0,0,1,24.78,87.82Z"/><path class="cls-6" d="M23.88,83.65h0a.1.1,0,0,1-.1-.11,9.86,9.86,0,0,1,2.13-4.84.11.11,0,1,1,.18.14A9.65,9.65,0,0,0,24,83.55.09.09,0,0,1,23.88,83.65Z"/><path class="cls-6" d="M26.34,78.8s4.34,5.93.54,5.81a2,2,0,0,0,.84-2C27.42,81.54,26.34,78.8,26.34,78.8Z"/><path class="cls-2" d="M13.8,62.13a.11.11,0,0,1-.08,0,.11.11,0,0,1,0-.16,9.44,9.44,0,0,0,.41-2.16.12.12,0,0,1,.13-.1.12.12,0,0,1,.1.13,9.53,9.53,0,0,1-.46,2.27A.12.12,0,0,1,13.8,62.13Z"/><path class="cls-2" d="M14.14,62.78a.12.12,0,0,1-.1-.19c.08-.1.68-1.46,1-2.3a.11.11,0,1,1,.21.09c-.23.52-1,2.23-1.07,2.36Z"/><path class="cls-2" d="M14.36,63.69a.11.11,0,0,1-.12-.1.1.1,0,0,1,.1-.12,20.1,20.1,0,0,0,1.59-3.58.11.11,0,0,1,.14-.07.12.12,0,0,1,.07.15C15.5,61.65,14.68,63.66,14.36,63.69Z"/><path class="cls-2" d="M14.62,64.1a.12.12,0,0,1-.1,0,.11.11,0,0,1,0-.15c1.25-.94,2.92-4.54,2.94-4.58a.11.11,0,0,1,.15-.06.12.12,0,0,1,.05.15c-.07.15-1.71,3.7-3,4.67Z"/><path class="cls-2" d="M15,64.72l-.08,0a.11.11,0,0,1,0-.16c.8-1,1.45-1.5,1.88-1.51a.36.36,0,0,1,.27.1.12.12,0,0,1,0,.16.11.11,0,0,1-.16,0,.17.17,0,0,0-.12,0h0c-.21,0-.71.24-1.68,1.42A.14.14,0,0,1,15,64.72Z"/><path class="cls-2" d="M15.54,65.22a.11.11,0,0,1-.09,0,.1.1,0,0,1,0-.15c.6-.56,1.05-.8,1.34-.72a.38.38,0,0,1,.23.22.12.12,0,0,1-.22.07.09.09,0,0,0-.08-.07c-.09,0-.39,0-1.12.66A.09.09,0,0,1,15.54,65.22Z"/><path class="cls-2" d="M16,66a.1.1,0,0,1-.1-.05.11.11,0,0,1,0-.16l.71-.5a.12.12,0,0,1,.16,0,.11.11,0,0,1,0,.16l-.71.5Z"/><path class="cls-2" d="M11.45,61.72a.11.11,0,0,1-.12-.1c0-.35.05-6.3.05-6.55a.1.1,0,0,1,.11-.11.1.1,0,0,1,.11.11c0,2.14-.07,6.26,0,6.53A.11.11,0,0,1,11.45,61.72Z"/><path class="cls-2" d="M11.84,61.33a.1.1,0,0,1-.12-.08,8.53,8.53,0,0,1,.53-4.11.11.11,0,0,1,.2.08,8.5,8.5,0,0,0-.51,4,.11.11,0,0,1-.09.13Z"/><path class="cls-2" d="M12.27,61.17a.11.11,0,0,1-.11-.08,3,3,0,0,1,.45-2.47.14.14,0,0,1,.16,0,.11.11,0,0,1,0,.16A2.76,2.76,0,0,0,12.37,61a.1.1,0,0,1-.08.13Z"/><path class="cls-2" d="M12.64,60.63a.11.11,0,0,1-.12-.1,2.84,2.84,0,0,1,.21-1.07.11.11,0,0,1,.14-.06.1.1,0,0,1,.06.14,3.17,3.17,0,0,0-.19,1A.11.11,0,0,1,12.64,60.63Z"/><path class="cls-2" d="M11.13,61.78a.09.09,0,0,1-.08,0,.12.12,0,0,1,0-.16,34.42,34.42,0,0,0-.38-4.2.13.13,0,0,1,.1-.13h0a.11.11,0,0,1,.12.1,22.59,22.59,0,0,1,.33,4.37A.09.09,0,0,1,11.13,61.78Z"/><path class="cls-2" d="M10.78,61.72a.12.12,0,0,1-.12-.1c0-.41-.51-3.14-.51-3.17a.1.1,0,0,1,.09-.12.11.11,0,0,1,.13.09c0,.11.47,2.76.51,3.18A.11.11,0,0,1,10.78,61.72Z"/><path class="cls-2" d="M9.42,64.52a.15.15,0,0,1-.09,0c-.43-.36-1.78-4-1.94-4.45a.12.12,0,0,1,.07-.15A.11.11,0,0,1,7.6,60a26.68,26.68,0,0,0,1.87,4.36.1.1,0,0,1,0,.15A.09.09,0,0,1,9.42,64.52Z"/><path class="cls-2" d="M9.65,63.85l-.08,0A13.73,13.73,0,0,1,8.36,61.3a.11.11,0,0,1,.07-.14.1.1,0,0,1,.14.06,13.59,13.59,0,0,0,1.14,2.43.12.12,0,0,1,0,.16A.13.13,0,0,1,9.65,63.85Z"/><path class="cls-2" d="M9.18,64.87a.12.12,0,0,1-.12-.07C8.42,63.36,8,63.29,8,63.29a.1.1,0,0,1-.1-.11A.11.11,0,0,1,8,63.07c.09,0,.56.08,1.26,1.64a.11.11,0,0,1-.06.15Z"/><path class="cls-2" d="M9.13,65.38a.13.13,0,0,1-.1,0l-.7-.81a.11.11,0,1,1,.16-.14l.71.8a.12.12,0,0,1,0,.16Z"/><path class="cls-2" d="M9,66a.08.08,0,0,1-.08,0l-.56-.46a.11.11,0,0,1,0-.15.1.1,0,0,1,.15,0l.56.46a.1.1,0,0,1,0,.15A.09.09,0,0,1,9,66Z"/><path class="cls-2" d="M7.52,70.6h0a.13.13,0,0,1-.1-.13.7.7,0,0,1,.28-.38,2,2,0,0,1,1.61,0,.12.12,0,0,1,.08.14.11.11,0,0,1-.14.07c-.83-.25-1.23-.16-1.42,0a.38.38,0,0,0-.19.23A.11.11,0,0,1,7.52,70.6Z"/><path class="cls-2" d="M9,69.44H9a1,1,0,0,1-1-.42.1.1,0,0,1,0-.15.11.11,0,0,1,.15,0,.82.82,0,0,0,.82.31.11.11,0,0,1,.12.1A.11.11,0,0,1,9,69.44Z"/><path class="cls-2" d="M8.62,68.73c-.22,0-.53-.34-.65-.49a.11.11,0,0,1,0-.16.1.1,0,0,1,.15,0c.17.22.39.42.46.41a.13.13,0,0,1,.12.11A.1.1,0,0,1,8.62,68.73Z"/><path class="cls-2" d="M8.51,68l-.08,0-.38-.31a.11.11,0,0,1,.14-.17l.38.31a.11.11,0,0,1,0,.16A.12.12,0,0,1,8.51,68Z"/><path class="cls-2" d="M8.18,71.43h0a.1.1,0,0,1-.11-.1A.43.43,0,0,1,8.21,71a1.35,1.35,0,0,1,1-.24.11.11,0,0,1,.1.12.1.1,0,0,1-.11.1c-.53,0-.77.08-.87.18a.24.24,0,0,0-.09.16A.1.1,0,0,1,8.18,71.43Z"/><path class="cls-2" d="M8.53,71.9H8.47a.11.11,0,0,1-.06-.14.91.91,0,0,1,1-.48.1.1,0,0,1,.09.12.11.11,0,0,1-.12.1.68.68,0,0,0-.76.34A.11.11,0,0,1,8.53,71.9Z"/><path class="cls-2" d="M9.31,72.72h0a.1.1,0,0,1-.08-.13c0-.07.13-.68.5-.71a.1.1,0,0,1,.12.09.11.11,0,0,1-.1.13c-.16,0-.28.36-.31.53A.11.11,0,0,1,9.31,72.72Z"/><path class="cls-2" d="M10.13,74.66a.13.13,0,0,1-.08,0,.1.1,0,0,1,0-.15l.54-.67a.12.12,0,0,1,.16,0,.11.11,0,0,1,0,.16l-.54.67A.12.12,0,0,1,10.13,74.66Z"/><path class="cls-2" d="M10.13,75.86a.13.13,0,0,1-.1,0,.1.1,0,0,1,0-.15,2.38,2.38,0,0,0,.64-1.17.11.11,0,0,1,.12-.1.12.12,0,0,1,.1.12,2.4,2.4,0,0,1-.71,1.31A.09.09,0,0,1,10.13,75.86Z"/><path class="cls-2" d="M10.49,77a.12.12,0,0,1-.12-.09.11.11,0,0,1,.08-.13s.48-.18.5-1.83a.11.11,0,0,1,.11-.11.11.11,0,0,1,.11.12c0,1.86-.61,2-.67,2Z"/><path class="cls-2" d="M11.39,80.38a.12.12,0,0,1-.11-.07c-.63-1.58.06-5,.09-5.17a.11.11,0,0,1,.22,0s-.71,3.53-.1,5a.11.11,0,0,1-.07.14Z"/><path class="cls-2" d="M14.44,78.53a.13.13,0,0,1-.08,0,.1.1,0,0,1,0-.15c.23-.29-.3-1.92-.75-3a.12.12,0,0,1,.06-.15.11.11,0,0,1,.14.06c.19.45,1.12,2.73.72,3.22A.2.2,0,0,1,14.44,78.53Z"/><path class="cls-2" d="M15.38,79.48a.11.11,0,0,1-.12-.1.12.12,0,0,1,.1-.12c.23-.39-.8-2.84-1.5-4.3a.1.1,0,0,1,.05-.14.11.11,0,0,1,.15.05c.31.64,1.84,3.9,1.51,4.49A.23.23,0,0,1,15.38,79.48Z"/><path class="cls-2" d="M17.75,82.17h-.06c-.91-.45-3.14-6.58-3.39-7.27a.12.12,0,0,1,.07-.15.11.11,0,0,1,.14.07c1,2.71,2.65,6.84,3.27,7.15a.1.1,0,0,1,0,.15S17.78,82.16,17.75,82.17Z"/><path class="cls-2" d="M17,79.47a.07.07,0,0,1-.07,0,49,49,0,0,1-2.17-4.78.11.11,0,1,1,.2-.08c.72,1.72,1.92,4.51,2.11,4.69a.11.11,0,0,1,0,.15A.09.09,0,0,1,17,79.47Z"/><path class="cls-2" d="M16.76,77.52a.11.11,0,0,1-.08,0,25.27,25.27,0,0,1-1.59-3,.1.1,0,0,1,.05-.14.11.11,0,0,1,.15,0,27.88,27.88,0,0,0,1.53,2.88.1.1,0,0,1,0,.15A.08.08,0,0,1,16.76,77.52Z"/><path class="cls-2" d="M16.43,76.18a.11.11,0,0,1-.11-.06l-1.06-1.94a.11.11,0,0,1,0-.15.11.11,0,0,1,.15,0L16.51,76a.11.11,0,0,1,0,.15Z"/><path class="cls-8" d="M14.05,68.37c.2,2-.45,3.67-1.45,3.77s-2-1.43-2.16-3.41.45-3.68,1.45-3.78S13.86,66.38,14.05,68.37Z"/><path class="cls-2" d="M12.62,72.35c-1.13.11-2.18-1.47-2.39-3.6s.51-3.89,1.64-4,2.18,1.47,2.39,3.6S13.75,72.23,12.62,72.35Zm-.71-7.19c-.87.08-1.45,1.71-1.27,3.55s1.07,3.32,1.94,3.23,1.45-1.71,1.27-3.55S12.78,65.07,11.91,65.16Z"/><path class="cls-2" d="M20.28,72.81c-.83.08-3.62-1.79-3.93-2a.11.11,0,0,1,0-.16.11.11,0,0,1,.15,0c.84.57,3.15,2,3.79,2a.11.11,0,0,1,.12.1A.11.11,0,0,1,20.28,72.81Z"/><path class="cls-2" d="M18.67,74a.13.13,0,0,1-.12-.09c-.3-1.13-2.3-2.25-2.32-2.26a.11.11,0,0,1,0-.15.11.11,0,0,1,.15,0c.08,0,2.1,1.18,2.43,2.41a.11.11,0,0,1-.08.13Z"/><path class="cls-2" d="M18.29,70.6a3.8,3.8,0,0,1-1.78-.66.11.11,0,0,1,.12-.18c.36.23,1.38.78,1.8.57a.11.11,0,0,1,.14,0,.1.1,0,0,1-.05.15A.56.56,0,0,1,18.29,70.6Z"/><path class="cls-2" d="M18,69.47a4.86,4.86,0,0,1-1.16-.11.11.11,0,0,1-.09-.13.13.13,0,0,1,.13-.09,4.93,4.93,0,0,0,1.1.11.11.11,0,0,1,.12.1A.11.11,0,0,1,18,69.47Z"/><path class="cls-2" d="M17,68.39h0a.84.84,0,0,1-.5-.08.11.11,0,0,1,0-.16.11.11,0,0,1,.15,0,.83.83,0,0,0,.8-.18.11.11,0,0,1,.16,0,.12.12,0,0,1,0,.16A.88.88,0,0,1,17,68.39Z"/><path class="cls-2" d="M17.82,74.15h-.05a.11.11,0,0,1-.06-.15c.12-.33-.75-1.06-1.41-1.46a.12.12,0,0,1,0-.16.1.1,0,0,1,.15,0c.29.18,1.74,1.11,1.5,1.73A.1.1,0,0,1,17.82,74.15Z"/></g></g></svg>