<svg xmlns="http://www.w3.org/2000/svg" viewBox="0 0 27.6 27.6"><defs><style>.cls-1{fill:#608b7d;}</style></defs><g id="Capa_2" data-name="Capa 2"><g id="Capa_1-2" data-name="Capa 1"><path class="cls-1" d="M13.8,9.21A4.6,4.6,0,1,1,9.21,13.8,4.59,4.59,0,0,1,13.8,9.21m0-2.54a7.14,7.14,0,1,0,7.14,7.13A7.14,7.14,0,0,0,13.8,6.67Z"/><path class="cls-1" d="M19.88,2.54a5.18,5.18,0,0,1,5.18,5.18V19.88a5.18,5.18,0,0,1-5.18,5.18H7.72a5.18,5.18,0,0,1-5.18-5.18V7.72A5.18,5.18,0,0,1,7.72,2.54H19.88m0-2.54H7.72A7.72,7.72,0,0,0,0,7.72V19.88A7.72,7.72,0,0,0,7.72,27.6H19.88a7.72,7.72,0,0,0,7.72-7.72V7.72A7.72,7.72,0,0,0,19.88,0Z"/><circle class="cls-1" cx="21.31" cy="6.29" r="1.68" transform="translate(10.29 25.58) rotate(-76.72)"/></g></g></svg>